<?xml version="1.0" standalone="no"?><!DOCTYPE svg PUBLIC "-//W3C//DTD SVG 1.1//EN" "http://www.w3.org/Graphics/SVG/1.1/DTD/svg11.dtd"><svg t="1553413073861" class="icon" style="" viewBox="0 0 1024 1024" version="1.1" xmlns="http://www.w3.org/2000/svg" p-id="12534" xmlns:xlink="http://www.w3.org/1999/xlink" width="20" height="20"><defs><style type="text/css"></style></defs><path d="M965.612 470.938H722.089c-13.491-12.97-27.55-24.28-42.189-33.9-23.926-15.693-57.6-33.377-101.023-53.038-43.433-19.656-72.192-33.014-86.277-40.054-43.136-20.833-64.706-53.852-64.706-99.046 0-25.528 8.069-48.64 24.212-69.33 16.138-20.69 38-33.08 65.593-37.197 14.668-2.345 25.528-3.522 32.568-3.522 44.902 0 83.338 15.114 115.328 45.337 24.94 20.839 44.749 48.348 59.428 82.535 14.669 34.19 22.005 55.982 22.005 65.367h26.855l-12.77-259.712h-23.331c0 13.501-2.35 24.212-7.04 32.133-6.754 8.514-13.942 12.764-21.57 12.764-6.462 0-13.8-2.345-22.012-7.045-36.684-19.656-68.229-32.42-94.638-38.293-26.409-5.867-62.658-8.806-108.723-8.806-63.683 0.88-117.463 20.03-161.331 57.446-43.873 37.417-68.89 93.978-75.05 169.698 0 74.245 19.513 130.227 58.543 167.93 5.919 5.72 12.2 11.285 18.775 16.727H64.486v72.561h386.125c4.972 2.033 10 4.045 15.135 6.011 52.234 19.082 90.824 43.873 115.768 74.388 24.94 30.526 37.417 76.155 37.417 136.899-4.992 37.269-20.91 65.813-47.76 85.617-26.848 19.809-57.88 29.716-93.096 29.716-40.791 0-74.988-12.032-102.564-36.096-33.167-27.878-57.078-61.256-71.752-100.147-14.679-38.881-22.01-65.654-22.01-80.333h-21.566l-11.003 277.76h27.29c0-15.55 5.284-27.581 15.846-36.096 5.868-3.522 11.884-5.284 18.048-5.284 5.868 0 13.788 2.356 23.772 7.045 49.004 32.87 117.53 50.325 205.568 52.383 39.02 0 71.45-3.676 97.28-11.003 35.216-9.687 65.51-28.175 90.9-55.465 25.38-27.29 44.524-59.494 57.442-96.62 12.908-37.12 19.369-75.934 19.369-116.428 0-50.918-9.2-95.027-27.571-132.347h188.488v-72.555z" fill="#A2A2A2" p-id="12535"></path></svg>