<?xml version="1.0" standalone="no"?><!DOCTYPE svg PUBLIC "-//W3C//DTD SVG 1.1//EN" "http://www.w3.org/Graphics/SVG/1.1/DTD/svg11.dtd"><svg t="1553412263160" class="icon" style="" viewBox="0 0 1040 1024" version="1.1" xmlns="http://www.w3.org/2000/svg" p-id="8418" xmlns:xlink="http://www.w3.org/1999/xlink" width="24.375" height="24"><defs><style type="text/css"></style></defs><path d="M818.97651 64.224744 204.713428 64.224744c-113.073288 0-204.714452 93.713358-204.714452 209.238488l0 413.642878c0 115.52513 91.641163 208.357422 204.714452 208.357422l614.262058 0c113.134687 0 204.771757-92.833315 204.771757-208.357422L1023.747243 273.463232C1023.748267 157.939125 932.110173 64.224744 818.97651 64.224744zM709.783599 482.420311l249.786996-150.083204 0 296.587905L709.783599 482.420311zM204.713428 128.026862l614.262058 0c72.988338 0 133.375683 58.618049 139.984195 132.059712L511.875157 528.771989 64.50206 259.912611C71.221088 186.55179 131.840724 128.026862 204.713428 128.026862zM63.87375 332.154959l250.091942 150.266375L63.87375 629.103068 63.87375 332.154959zM818.97651 831.417867 204.713428 831.417867c-72.79391 0-133.36238-57.398268-140.190903-130.530892l309.642223-181.605128c0.189312-0.11461 0.370437-0.23843 0.555655-0.356111l121.31295 72.890101c4.840238 2.889817 10.308787 4.397147 15.84078 4.397147 5.529947 0 10.997472-1.50733 15.838733-4.397147l121.314996-72.891124c0.186242 0.118704 0.367367 0.242524 0.557702 0.357134l309.352627 181.435259C952.219163 773.930571 891.884007 831.417867 818.97651 831.417867z" p-id="8419"></path></svg>