<?xml version="1.0" standalone="no"?><!DOCTYPE svg PUBLIC "-//W3C//DTD SVG 1.1//EN" "http://www.w3.org/Graphics/SVG/1.1/DTD/svg11.dtd"><svg t="1553412563625" class="icon" style="" viewBox="0 0 1304 1024" version="1.1" xmlns="http://www.w3.org/2000/svg" p-id="1153" xmlns:xlink="http://www.w3.org/1999/xlink" width="25.46875" height="20"><defs><style type="text/css"></style></defs><path d="M328.286115 0 1303.272727 0 1303.272727 162.909091 328.286115 162.909091 328.286115 0ZM0 0 164.143011 0 164.143011 162.909091 0 162.909091 0 0ZM0 407.272727 164.143011 407.272727 164.143011 570.181818 0 570.181818 0 407.272727ZM0 814.545455 164.143011 814.545455 164.143011 977.454545 0 977.454545 0 814.545455ZM328.286115 407.272727 1303.272727 407.272727 1303.272727 570.181818 328.286115 570.181818 328.286115 407.272727ZM328.286115 814.545455 1303.272727 814.545455 1303.272727 977.454545 328.286115 977.454545 328.286115 814.545455Z" p-id="1154" fill="#A2A2A2"></path></svg>