<?xml version="1.0" standalone="no"?><!DOCTYPE svg PUBLIC "-//W3C//DTD SVG 1.1//EN" "http://www.w3.org/Graphics/SVG/1.1/DTD/svg11.dtd"><svg t="1553412200955" class="icon" style="" viewBox="0 0 1024 1024" version="1.1" xmlns="http://www.w3.org/2000/svg" p-id="2977" xmlns:xlink="http://www.w3.org/1999/xlink" width="24" height="24"><defs><style type="text/css"></style></defs><path d="M0 0h1024v1024H0z" fill="#FFFFFF" p-id="2978"></path><path d="M638.784 888.576c-0.128 67.2-56.384 121.6-126.784 121.6-69.952 0-126.656-54.208-126.784-121.6h253.568z" fill="#333333" p-id="2979"></path><path d="M206.976 652.608V462.144A306.048 306.048 0 0 1 512 157.12a305.92 305.92 0 0 1 305.024 305.024v390.208h64V462.144c0-203.072-165.952-369.024-369.024-369.024-203.008 0-369.024 165.952-369.024 369.024v190.464h64z" fill="#333434" p-id="2980"></path><path d="M33.984 861.824h956.032v-64H33.984zM441.984 115.84v-32C441.984 45.312 473.472 13.824 512 13.824c38.464 0 70.016 31.488 70.016 70.016v32" fill="#333434" p-id="2981"></path></svg>