<?xml version="1.0" standalone="no"?><!DOCTYPE svg PUBLIC "-//W3C//DTD SVG 1.1//EN" "http://www.w3.org/Graphics/SVG/1.1/DTD/svg11.dtd"><svg t="1553412632988" class="icon" style="" viewBox="0 0 1103 1024" version="1.1" xmlns="http://www.w3.org/2000/svg" p-id="1428" xmlns:xlink="http://www.w3.org/1999/xlink" width="21.54296875" height="20"><defs><style type="text/css"></style></defs><path d="M106.125863 222.57727 39.160832 222.57727 39.160832 83.466476C39.160832 75.486444 37.137566 69.824985 33.090875 66.482018 29.044263 63.139052 21.27746 61.467569 9.790228 61.467569L0 61.467569 0 35.586521C14.881162 32.9984 27.804121 28.577083 38.76927 22.322412 48.167857 16.930501 57.435845 9.489802 66.573391 0L106.125863 0 106.125863 222.57727ZM139.020997 450.982282C139.020997 462.624453 136.018708 474.795717 130.013972 487.496389 125.053558 497.868564 116.438331 511.521477 104.167818 528.45568 91.897383 545.389804 79.496586 562.323692 66.965031 579.257895L133.14686 579.257895 133.14686 616.724559 0 616.724559 0 585.608192C18.797332 557.878508 31.589691 538.827855 38.37763 528.45568 46.470932 516.390046 55.738841 501.890442 66.181829 484.956239 72.969767 473.313989 77.27742 465.005804 79.104866 460.03137 80.932391 455.057014 81.846193 449.923938 81.846193 444.631985 81.846193 433.41312 77.27742 427.803727 68.139874 427.803727 62.91842 427.803727 59.393969 429.920492 57.566444 434.154023 55.738919 438.387554 54.825196 444.314388 54.825196 451.934759L54.825196 472.255724 0 472.255724 0 464.952871C0 460.71934 0.0653 456.591675 0.19582 452.569797 0.326341 448.547998 0.783202 444.420332 1.566405 440.186801 4.177132 425.157711 11.095513 413.72735 22.321703 405.895247 33.547815 398.063222 48.298299 394.147289 66.573391 394.147289 75.972057 394.147289 84.326321 394.941046 91.636342 396.52864 98.946442 398.116155 105.734223 400.709159 112 404.307732 130.01405 415.314944 139.020997 430.87297 139.020997 450.982282ZM136.347806 942.602319C136.347806 955.695104 135.348933 966.19008 133.351188 974.087326 131.353364 981.984571 127.357873 988.842614 121.364559 994.661691 110.376802 1005.468514 93.895286 1010.871769 71.919774 1010.871769 48.695532 1010.871769 31.090373 1006.975134 19.103665 999.181785 7.117036 991.388436 1.123722 979.802506 1.123722 964.423601L0 938.549799 0 931.06814 57.685622 931.06814 57.685622 964.735291C57.685622 973.463867 60.931938 977.828076 67.424729 977.828076 72.41917 977.828076 75.478252 975.749908 76.601974 971.593413 77.725775 967.436997 78.287636 959.643727 78.287636 948.213445L78.287636 933.250284C78.287636 920.780958 75.665566 912.883791 70.421425 909.558626 66.425856 907.064714 57.560852 905.817797 43.826097 905.817797L43.826097 874.644559 47.197342 874.644559C61.181794 874.644559 69.859486 873.501538 73.230809 871.215498 76.602053 868.929378 78.287636 862.383104 78.287636 851.576281L78.287636 839.418722C78.287636 832.976187 77.913088 828.819771 77.163914 826.949396 75.665566 823.208566 72.668948 821.338191 68.173903 821.338191 61.181716 821.338191 57.685622 825.598503 57.685622 834.119207L57.685622 852.511508 0 852.511508 0 840.353871C0 820.402885 4.931978 806.738708 14.796012 799.361024 24.660047 791.98334 41.828194 788.294498 66.301007 788.294498 89.275471 788.294498 106.318769 792.814592 117.431454 801.854858 128.544138 810.895202 134.100362 825.286735 134.100362 845.029927 134.100362 857.291461 131.72799 866.539441 126.983247 872.774105 123.73693 877.138393 118.118242 881.294809 110.127104 885.243431 121.614336 889.192054 128.856143 894.959065 131.852839 902.54462 134.849536 910.130176 136.347806 923.482585 136.347806 942.602319ZM283.982375 92.740529 1102.769231 92.740529 1102.769231 231.851323 283.982375 231.851323 283.982375 92.740529ZM283.982375 440.517553 1102.769231 440.517553 1102.769231 579.628347 283.982375 579.628347 283.982375 440.517553ZM283.982375 788.294498 1102.769231 788.294498 1102.769231 927.405292 283.982375 927.405292 283.982375 788.294498Z" p-id="1429" fill="#A2A2A2"></path></svg>