<?xml version="1.0" standalone="no"?><!DOCTYPE svg PUBLIC "-//W3C//DTD SVG 1.1//EN" "http://www.w3.org/Graphics/SVG/1.1/DTD/svg11.dtd"><svg t="1553412121034" class="icon" style="" viewBox="0 0 1024 1024" version="1.1" xmlns="http://www.w3.org/2000/svg" p-id="2314" xmlns:xlink="http://www.w3.org/1999/xlink" width="24" height="24"><defs><style type="text/css"></style></defs><path d="M775.808 992.64H249.152c-81.024 0-146.944-69.12-146.944-154.048h59.84c0 51.968 39.104 94.208 87.168 94.208h526.656c48 0 87.104-42.24 87.104-94.208V494.016c0-51.968-39.104-94.208-87.104-94.208h-59.2V301.376c0-121.024-78.656-196.224-205.248-196.224-125.248 0-203.072 75.2-203.072 196.224v98.368h-59.2c-48.064 0-87.168 42.24-87.168 94.208v202.432h-59.776V494.016c0-84.672 65.536-153.664 146.304-154.048v-38.592C248.512 148.224 354.176 45.312 511.36 45.312c158.528 0 265.088 102.912 265.088 256.064v38.592c80.704 0.32 146.24 69.312 146.24 154.048v344.576c0.064 84.928-65.856 154.048-146.88 154.048z" fill="#323333" p-id="2315"></path><path d="M447.04 530.112v125.056h36.16v121.344h57.216v-121.344h36.224V530.112zM278.464 340.096h487.552v59.264H278.464z" fill="#323333" p-id="2316"></path></svg>