<?xml version="1.0" standalone="no"?><!DOCTYPE svg PUBLIC "-//W3C//DTD SVG 1.1//EN" "http://www.w3.org/Graphics/SVG/1.1/DTD/svg11.dtd"><svg t="1553412191296" class="icon" style="" viewBox="0 0 1024 1024" version="1.1" xmlns="http://www.w3.org/2000/svg" p-id="2844" xmlns:xlink="http://www.w3.org/1999/xlink" width="24" height="24"><defs><style type="text/css"></style></defs><path d="M0 0h1024v1024H0z" fill="#FFFFFF" p-id="2845"></path><path d="M909.504 974.72l-165.504-160.448a45.056 45.056 0 0 1 0-65.024 48.448 48.448 0 0 1 67.072 0l165.504 160.448" fill="#333333" p-id="2846"></path><path d="M146.944 640.32a367.104 367.104 0 0 1-35.52-158.08A369.408 369.408 0 0 1 480.32 113.28a369.408 369.408 0 0 1 368.96 368.96A369.344 369.344 0 0 1 480.32 851.2a366.784 366.784 0 0 1-193.728-55.04l-33.728 54.4a430.336 430.336 0 0 0 227.392 64.64 433.408 433.408 0 0 0 432.96-432.96A433.408 433.408 0 0 0 480.256 49.28 433.408 433.408 0 0 0 47.36 482.24c0 64.96 14.4 128 41.728 185.536l57.856-27.456z" fill="#333434" p-id="2847"></path></svg>