<?xml version="1.0" standalone="no"?><!DOCTYPE svg PUBLIC "-//W3C//DTD SVG 1.1//EN" "http://www.w3.org/Graphics/SVG/1.1/DTD/svg11.dtd"><svg t="1553412110701" class="icon" style="" viewBox="0 0 1024 1024" version="1.1" xmlns="http://www.w3.org/2000/svg" p-id="2181" xmlns:xlink="http://www.w3.org/1999/xlink" width="24" height="24"><defs><style type="text/css"></style></defs><path d="M0 0h1024v1024H0z" fill="#FFFFFF" p-id="2182"></path><path d="M307.904 582.144C184.768 640.704 64 812.288 64 928.64c0 50.752 45.888 95.36 98.176 95.36h693.248c52.352 0 98.24-44.608 98.24-95.36 0-31.808-9.6-67.072-25.216-103.04l0.576-0.32c-1.344-2.496-2.816-4.608-4.224-7.104-40.704-88.896-119.808-179.328-202.496-228.096a841.088 841.088 0 0 0-106.432-62.656c-7.168-3.52-12.48-6.016-15.296-7.872l-17.792 20.608L575.616 512l-23.36 26.304c-2.368 22.144 14.208 30.464 37.056 42.048 47.168 23.616 161.856 81.728 248.896 208.256 2.88 4.416 5.696 8.768 8.384 13.184 4.288 6.528 8.128 13.696 12.224 20.608 21.184 38.72 34.432 76.288 34.432 106.24 0 17.6-18.688 34.944-37.824 34.944H162.176c-19.072 0-37.824-17.344-37.824-34.944 0-84.8 98.624-239.232 209.472-291.968" fill="#333333" p-id="2183"></path><path d="M512 58.88c-127.104 0-230.528 103.424-230.528 230.528S384.896 519.872 512 519.872s230.528-103.36 230.528-230.464S639.104 58.88 512 58.88m0 519.872a289.664 289.664 0 0 1-289.344-289.344C222.656 129.792 352.448 0 512 0s289.344 129.792 289.344 289.408A289.664 289.664 0 0 1 512 578.752" fill="#333434" p-id="2184"></path></svg>